<svg width="48" height="48" xmlns="http://www.w3.org/2000/svg">
 <defs>
  <radialGradient cy="0.109375" cx="0.855469" spreadMethod="pad" id="svg_7">
   <stop offset="0" stop-color="#f7b9b9"/>
   <stop offset="1" stop-color="#084646"/>
  </radialGradient>
 </defs>
 <g>
  <title>background</title>
  <rect fill="none" id="canvas_background" height="402" width="582" y="-1" x="-1"/>
 </g>
 <g>
  <title>Layer 1</title>
  <g id="svg_1" fill-rule="evenodd" fill="none">
   <circle id="svg_2" stroke-width="1.02" stroke="#e5e5e5" fill="#fff" r="23.5" cy="24" cx="24"/>
   <path id="svg_3" fill="#AAA" d="m27.52797,40.611279c0.0058,-0.0013 0.00849,-0.0013 0.00892,0c0.02549,0.06417 -0.96834,2.84727 -1.33157,3.72959c-0.08131,0.1976 -0.11143,0.24545 -0.15381,0.24361c-0.10282,-0.00457 -1.54378,-0.20827 -2.41586,-0.34214c-1.52679,-0.23437 -4.08398,-0.68591 -4.72933,-0.83457l-0.14994,-0.03372l0.91511,-0.20859c1.96143,-0.44686 2.90342,-0.68645 3.85908,-0.98226c1.20519,-0.37302 2.39854,-0.83816 3.60395,-1.40476c0.19059,-0.08951 0.353,-0.15824 0.39345,-0.16716zm-7.62448,-1.8078c0.00785,0.00804 -0.42657,0.71135 -1.19067,1.9283c-0.32256,0.51386 -0.68848,1.09874 -0.81378,1.29982c-0.12541,0.20098 -0.30912,0.50657 -0.40765,0.68036l-0.1794,0.31615l-0.091,-0.02458c-0.21952,-0.06014 -1.76836,-0.61337 -2.17751,-0.77759c-0.50703,-0.20347 -1.03547,-0.44926 -1.42515,-0.6622c-0.48691,-0.26612 -1.10451,-0.66089 -1.05611,-0.67644c0.01398,-0.00446 0.85186,-0.23632 1.86097,-0.51451c2.68444,-0.73985 4.16928,-1.16486 5.14321,-1.47209c0.18199,-0.05742 0.33354,-0.1007 0.33709,-0.09722zm1.083,-0.03111c0.00431,-0.00543 0.27783,0.09266 0.60878,0.21773c0.79776,0.30168 1.42386,0.49841 2.27109,0.71277c1.04052,0.26329 2.54429,0.52669 3.43477,0.6026c0.1367,0.01163 0.20651,0.0274 0.18457,0.04143c-0.04141,0.02654 -0.94307,0.33105 -1.60596,0.5417c-1.05224,0.33442 -4.26801,1.29504 -6.89006,2.05783c-0.48638,0.1416 -0.90231,0.26112 -0.92403,0.26569c-0.05873,0.0124 -0.26406,-0.04209 -0.26406,-0.06993c0,-0.01327 0.14703,-0.20141 0.32558,-0.41729c0.88133,-1.066 1.75685,-2.25641 2.4876,-3.38233c0.19995,-0.30788 0.36742,-0.56465 0.37172,-0.57009l0,-0.00011zm-4.88819,-3.53252l0.19737,0.22283c0.88241,0.99401 1.77976,1.7356 2.87471,2.37539c0.19328,0.113 0.34063,0.2112 0.32805,0.21903c-0.0455,0.0285 -3.78616,1.37323 -5.51612,1.98268c-0.97566,0.34377 -1.77708,0.62392 -1.78149,0.62338c-0.00441,-0.00065 -0.05969,-0.0372 -0.12175,-0.08168l-0.11283,-0.08167l0.17693,-0.25785c0.57393,-0.84067 1.29511,-1.76518 2.87342,-3.68554l1.08171,-1.31657zm-0.78442,-0.30321c0.01495,0.01425 -0.76506,1.14333 -1.85452,2.68501c-0.3786,0.53583 -0.82346,1.16747 -0.98814,1.40347c-0.16467,0.23599 -0.41377,0.60956 -0.55489,0.83065l-0.25771,0.40174l-0.27427,-0.23328c-0.32181,-0.27319 -0.8851,-0.85328 -1.14065,-1.1754c-0.52575,-0.66275 -0.88209,-1.36018 -1.02267,-2.00085c-0.06496,-0.2957 -0.0669,-0.44643 -0.00516,-0.46514c0.08917,-0.02718 1.72502,-0.41663 3.25923,-0.77628c0.85218,-0.19978 1.83741,-0.4336 2.19031,-0.51962c0.3529,-0.08602 0.64503,-0.15367 0.64847,-0.1503zm13.96739,-0.48341c0.0029,0.00066 0.00387,0.00261 0.00387,0.00522c0,0.13769 -0.30901,1.41173 -0.56651,2.33385c-0.21597,0.77356 -0.39732,1.37856 -0.73311,2.45054c-0.14832,0.4734 -0.27567,0.85991 -0.2832,0.85785c-0.00764,-0.00196 -0.04324,-0.00892 -0.07949,-0.01556c-1.81977,-0.333 -3.44982,-0.79738 -4.97661,-1.4177c-0.42722,-0.17357 -1.04406,-0.44981 -1.07665,-0.482c-0.01097,-0.01098 0.35784,-0.18662 0.81905,-0.3901c2.78866,-1.23021 5.678,-2.63117 6.66581,-3.23193c0.11874,-0.07221 0.20673,-0.1143 0.22684,-0.11017zm-6.05068,-2.13558c0.00419,0.00424 -0.04356,0.13431 -0.10638,0.28765c-0.53381,1.30515 -1.23315,2.72895 -2.12492,4.32827c-0.22694,0.40696 -0.41829,0.73931 -0.4255,0.73865c-0.00731,-0.00065 -0.19188,-0.11114 -0.41012,-0.24621c-1.29897,-0.80402 -2.44823,-1.79378 -3.20286,-2.75636l-0.10767,-0.13605l0.56006,-0.15551c1.99778,-0.55334 3.69204,-1.14518 5.37651,-1.87904c0.23856,-0.10386 0.43668,-0.18565 0.44088,-0.1814zm0.97404,-0.32268c0.00388,-0.00467 0.15392,0.07657 0.33322,0.18141c1.30844,0.76507 3.13424,1.48274 4.69082,1.84271l0.14101,0.03241l-0.19349,0.10886c-0.81314,0.45622 -3.49113,1.5828 -6.22622,2.6203c-0.39926,0.15139 -0.78894,0.29995 -0.86509,0.3304c-0.07626,0.03056 -0.13843,0.05144 -0.13843,0.04535c0,-0.00598 0.11283,-0.22556 0.25115,-0.48722c0.76786,-1.45164 1.53432,-3.21572 1.92766,-4.43974c0.04001,-0.12474 0.0755,-0.2298 0.07937,-0.23448zm-9.5546,-1.73004c0.02495,-0.0012 0.01861,0.04676 -0.02054,0.27471c-0.02722,0.15867 -0.05798,0.45818 -0.06916,0.66481c-0.04927,0.90569 0.09594,1.57387 0.5408,2.48816c0.12369,0.25416 0.22049,0.46601 0.21533,0.47036c-0.04453,0.03774 -4.09528,1.2362 -5.36876,1.58878c-0.37753,0.10451 -0.70741,0.19652 -0.73441,0.20467c-0.04421,0.01349 -0.04808,0.00381 -0.03205,-0.10103c0.1395,-0.90863 0.82497,-2.10122 1.78277,-3.1023c0.63675,-0.66567 1.14657,-1.05991 2.01349,-1.56028c0.62212,-0.3591 1.58831,-0.89808 1.65973,-0.92527c0.00473,-0.00185 0.00925,-0.0024 0.0128,-0.00261zm15.19001,-1.83108l0,0.26307c-0.0013,1.38171 -0.14714,3.27326 -0.35882,4.65356c-0.03721,0.24219 -0.06937,0.44197 -0.07185,0.44447c-0.00236,0.00239 -0.1751,-0.04872 -0.38312,-0.11408c-0.91951,-0.28863 -1.91647,-0.71984 -2.81576,-1.21815c-0.59566,-0.32995 -1.45709,-0.86448 -1.43289,-0.88895c0.00656,-0.00663 0.26029,-0.14257 0.56392,-0.3019c1.20261,-0.6312 2.35144,-1.31167 3.35022,-1.98659c0.37474,-0.25329 0.93533,-0.66318 1.05988,-0.77367l0.08842,-0.07776zm-10.56458,-0.43415c0.01635,0.01458 -0.29428,0.67775 -0.59974,1.28036c-0.59265,1.16888 -1.24607,2.31916 -2.11352,3.72306c-0.14962,0.2423 -0.28761,0.46372 -0.30633,0.49113c-0.03076,0.04524 -0.04334,0.03034 -0.13832,-0.16063c-0.20769,-0.41761 -0.38172,-0.94452 -0.47164,-1.43457c-0.08917,-0.48493 -0.074,-1.32461 0.03324,-1.84532c0.0797,-0.38695 0.07615,-0.37835 0.25641,-0.47167c0.77894,-0.40369 3.31452,-1.60487 3.3399,-1.58236l0,0zm1.22659,-0.51179c0.00753,0.00076 0.01334,0.00283 0.01657,0.00642c0.01215,0.01348 0.05474,0.11408 0.09486,0.22425c0.19522,0.53593 0.63406,1.33212 1.01514,1.84141c0.41603,0.55605 0.95845,1.14854 1.41234,1.54212c0.14574,0.12637 0.2817,0.24426 0.30117,0.26177c0.03882,0.0348 0.05195,0.02893 -0.94716,0.41207c-1.15787,0.44404 -2.41888,0.88873 -3.86672,1.36191c-0.55166,0.18043 -1.01868,0.33279 -1.03686,0.33953c-0.05507,0.02077 -0.03818,-0.01359 0.12305,-0.26818c0.71946,-1.13561 1.80923,-3.35711 2.41844,-4.92827c0.10573,-0.27254 0.2063,-0.5454 0.22437,-0.60652c0.02646,-0.08961 0.0526,-0.12006 0.13585,-0.15802c0.04603,-0.02098 0.08626,-0.03077 0.10895,-0.02849zm4.00256,-1.5953c0.03657,0.03719 0.01001,1.42249 -0.03463,1.79997c-0.10724,0.90559 -0.28245,1.74321 -0.56264,2.69546c-0.06701,0.22762 -0.12971,0.4237 -0.13971,0.43544c-0.02431,0.0285 -0.86219,-0.79683 -1.14066,-1.12353c-0.47584,-0.55812 -0.85229,-1.11254 -1.12656,-1.6587c-0.1394,-0.27765 -0.36161,-0.82587 -0.34096,-0.8411c0.09411,-0.06906 3.32215,-1.33092 3.34516,-1.30754zm0.84971,-0.32778c0.05238,-0.00022 0.1949,0.07939 0.53188,0.29287c1.26391,0.80053 2.97559,1.76376 3.70903,2.08763c0.22749,0.10038 0.25341,0.06144 -0.2704,0.4212c-1.11656,0.7666 -2.5046,1.52037 -4.20896,2.28589c-0.29697,0.13344 -0.54866,0.2423 -0.55877,0.2423c-0.01011,0 0.02302,-0.15237 0.07303,-0.33953c0.41292,-1.54419 0.64589,-3.10284 0.65234,-4.35285c0.00334,-0.61816 0.00345,-0.62153 0.06153,-0.63632c0.00279,-0.00065 0.00677,-0.00119 0.01032,-0.00119zm4.12819,-1.36975c0.07357,0 0.26944,1.89883 0.32042,3.1036c0.01075,0.25601 0.0086,0.4199 -0.00646,0.4199c-0.0484,0 -1.03782,-0.58749 -1.73921,-1.03283c-0.61244,-0.38891 -1.77482,-1.16997 -1.9596,-1.31668c-0.0583,-0.04622 -0.05217,-0.0485 0.44851,-0.22284c0.85197,-0.29667 2.87191,-0.95126 2.93634,-0.95126l0,0.00011zm1.85194,-1.09895l-8.10386,2.67206l-7.04517,3.14646l-1.97369,0.52745c-0.50036,0.48091 -1.03148,0.96932 -1.59692,1.46686c-0.62168,0.54703 -1.20626,1.04262 -1.6508,1.40086c-0.49498,0.3989 -1.231,1.13734 -1.60713,1.61085c-0.55973,0.7044 -0.99739,1.45555 -1.18551,2.03325c-0.33859,1.03925 -0.1736,2.09187 0.47928,3.06347c0.83411,1.24099 2.49449,2.50187 4.42548,3.36016c0.98502,0.43784 2.64722,1.00227 3.89371,1.32048c2.07706,0.53039 6.09156,1.10667 8.30242,1.19226c0.44841,0.0174 1.04535,0.01577 1.07278,-0.00261c0.04851,-0.03241 0.3927,-0.69134 0.79206,-1.51613c1.35878,-2.8066 2.34186,-5.43756 2.87083,-7.68462c0.32031,-1.36061 0.57006,-3.17494 0.73183,-5.32608c0.04528,-0.6026 0.06174,-2.61237 0.02689,-3.29545c-0.05668,-1.11156 -0.15349,-2.01759 -0.3088,-2.90665c-0.0228,-0.13028 -0.03119,-0.24491 -0.01925,-0.25535c0.02248,-0.01946 0.09906,-0.04437 1.09451,-0.33692l-0.19866,-0.47035z"/>
   <path id="svg_4" fill="#AAA" d="m24.07215,8.76648c0.02582,0.00207 0.05314,0.05514 0.1295,0.22414c0.20888,0.46275 0.85907,1.71689 1.01632,1.95941c0.05174,0.07994 0.1338,0.08527 -0.72924,-0.05568c-2.07426,-0.33877 -2.74532,-0.4522 -2.74532,-0.46525c0,-0.00793 0.06217,-0.04915 0.13843,-0.092c0.64234,-0.36117 1.29048,-0.81576 1.86732,-1.30754c0.13799,-0.11756 0.27051,-0.22958 0.29481,-0.25013c0.01001,-0.00838 0.01958,-0.0136 0.02818,-0.01295zm-7.33482,-1.48122l0.86122,1.08732c0.47412,0.59793 0.94931,1.1915 1.05483,1.31918c0.10551,0.12767 0.18715,0.23588 0.18198,0.23969c-0.02441,0.01816 -1.24821,-0.22284 -1.89678,-0.37313c-0.6659,-0.15443 -0.94125,-0.22828 -1.35341,-0.36161l-0.33579,-0.10886l0.00118,-0.08418c0.0043,-0.41772 0.52499,-1.0337 1.40858,-1.66392l0.07819,-0.05449zm0.24094,-0.19434l0.23705,0.08168c1.3006,0.44752 4.56036,1.0772 6.36207,1.22847c0.20328,0.01708 0.37419,0.03535 0.37946,0.04013c0.00517,0.00479 -0.16757,0.0981 -0.38323,0.2074c-0.86928,0.44023 -1.8259,0.97682 -2.48771,1.39563c-0.19436,0.123 -0.37258,0.22218 -0.39603,0.22033c-0.02345,-0.00196 -0.15155,-0.02273 -0.28578,-0.04535l-0.2448,-0.04024l-0.61524,-0.60391c-1.07988,-1.05686 -1.92314,-1.87447 -2.24925,-2.18354l-0.31654,-0.3006zm5.90193,-2.7719c0.00548,-0.00098 0.00817,-0.00098 0.00903,0c0.0043,0.00522 0.02893,0.17803 0.05378,0.38357c0.10465,0.86557 0.29621,1.70503 0.59598,2.60867c0.22587,0.68079 0.2291,0.64088 -0.03969,0.56497c-0.62502,-0.1764 -3.42519,-0.66242 -5.45083,-0.94605c-0.32644,-0.04567 -0.59813,-0.08635 -0.60243,-0.0907c-0.02571,-0.02599 1.46085,-0.81347 2.11986,-1.12353c0.84519,-0.3976 3.14672,-1.36648 3.3143,-1.39693l0,0zm0.10261,-0.31876c-0.13553,-0.01599 -2.31046,0.77628 -3.70786,1.35028c-1.89334,0.77781 -3.36345,1.52298 -4.27038,2.16669c-0.33762,0.23959 -0.76205,0.67047 -0.82411,0.83588c-0.02323,0.06188 -0.03409,0.1342 -0.03463,0.20859l0.82282,0.78531l1.95196,0.62979l4.64974,0.83979l5.31499,0.92397l0.05388,-0.46133c-0.01613,-0.00261 -0.0313,-0.00522 -0.04743,-0.00783l-0.69977,-0.11136l-0.1423,-0.25275c-0.72236,-1.28883 -1.52066,-2.88359 -1.98402,-3.96286c-0.35881,-0.83577 -0.70343,-1.79856 -0.89456,-2.49578c-0.11347,-0.41413 -0.12531,-0.44099 -0.18833,-0.44839z"/>
   <path id="svg_5" fill="#EB2D2D" d="m21.29956,23.53107c0.0242,0.02447 -0.67643,0.82577 -1.14839,1.31276c-1.1811,1.2188 -2.35198,2.17442 -3.80261,3.10491c-0.18146,0.11637 -0.34731,0.22164 -0.36904,0.23458c-0.0399,0.02349 0.0128,-0.03697 0.64976,-0.73865c0.4013,-0.44219 0.7086,-0.80923 1.0573,-1.26741c0.22974,-0.30168 0.27363,-0.34399 0.61007,-0.58966c0.90639,-0.66144 2.97882,-2.08089 3.00291,-2.05653zm0.95103,-0.23849c0.02786,-0.00348 0.06755,0.04904 0.23319,0.2994c0.34924,0.52756 0.61663,1.23108 0.68568,1.80389l0.01409,0.12311l-0.83691,0.32789c-1.50226,0.58944 -2.88514,1.1704 -3.81928,1.60291c-0.26137,0.12104 -0.72279,0.34399 -1.02406,0.49635c-0.30127,0.15247 -0.54726,0.27221 -0.54726,0.26569c0,-0.00653 0.1892,-0.15041 0.42045,-0.32007c1.83333,-1.34582 3.414,-2.8191 4.60488,-4.29194c0.12735,-0.15759 0.24309,-0.29418 0.25761,-0.30332c0.00387,-0.00239 0.00763,-0.00337 0.01161,-0.00391zm-2.06092,-1.63533c0.01527,0 0.15843,0.07265 0.31784,0.16194c0.39054,0.21881 0.74139,0.45948 1.05095,0.72049c0.01194,0.01011 -0.14833,0.14246 -0.35634,0.29418c-0.58039,0.42348 -1.4643,1.09797 -1.97628,1.50971c-0.54005,0.43447 -0.55801,0.44774 -0.49724,0.35377c0.40453,-0.62544 0.60781,-0.97965 0.82024,-1.43195c0.18876,-0.40206 0.37699,-0.87938 0.51133,-1.2946c0.05593,-0.17248 0.11412,-0.31354 0.1295,-0.31354zm7.73601,-1.91666c0.01463,0.01489 -0.82906,1.20955 -1.33038,1.88426c-0.59975,0.80716 -1.66802,2.15646 -2.40307,3.03497c-0.30708,0.36694 -0.57016,0.67156 -0.58447,0.67645c-0.01559,0.00533 -0.02527,-0.08461 -0.0256,-0.22686c-0.0014,-0.74953 -0.18898,-1.5506 -0.52036,-2.2289c-0.13994,-0.28646 -0.16338,-0.35584 -0.13456,-0.38227c0.1153,-0.10571 1.8998,-1.13451 3.02464,-1.74429c0.7727,-0.41881 1.95907,-1.02816 1.9738,-1.01336zm1.27908,-0.32398l0.29859,0.19576c0.68503,0.44969 1.49624,1.05468 2.1147,1.57572c0.34666,0.292 1.02019,0.90189 1.15861,1.04969l0.07433,0.07906l-0.49596,0.13997c-2.80533,0.78694 -4.97262,1.48753 -7.50142,2.42715c-0.28073,0.1043 -0.52306,0.19054 -0.53962,0.19054c-0.03485,0 -0.06959,0.03241 0.56134,-0.55464c1.61746,-1.50504 3.04637,-3.16331 4.1141,-4.77666l0.21533,-0.32659zm-4.86775,-2.02412c0.01667,0.01675 -0.18963,0.78303 -0.32031,1.19216c-0.25072,0.78487 -0.6745,1.77148 -1.08171,2.51405c-0.09573,0.17444 -0.24244,0.42968 -0.32558,0.56758l-0.15123,0.25013l-0.34354,-0.33561c-0.39904,-0.39129 -0.72419,-0.63425 -1.13936,-0.85012c-0.16317,-0.08483 -0.29579,-0.16346 -0.296,-0.17499c-0.00076,-0.051 1.04417,-1.01184 1.85064,-1.70144c0.57727,-0.49364 1.79235,-1.47666 1.80709,-1.46176l0,0zm0.80109,-0.14518c0.08518,0.01935 0.88025,0.39347 1.48032,0.69721c0.54876,0.27787 1.37986,0.72528 1.42127,0.76454c0.00528,0.005 -0.2875,0.15954 -0.65104,0.34344c-1.15077,0.58216 -2.13654,1.13191 -3.16566,1.76757c-0.29352,0.18129 -0.53951,0.3305 -0.54725,0.3305c-0.02571,0 -0.0156,-0.02251 0.14864,-0.32658c0.54812,-1.01489 0.99018,-2.22673 1.24445,-3.41083c0.0227,-0.1056 0.05002,-0.1702 0.06927,-0.16585zm13.63149,-1.41249c0.02237,-0.00457 0.17069,0.06797 0.34859,0.17107c1.48839,0.86198 2.94677,1.96898 4.09367,3.10751c0.32622,0.32387 1.1243,1.16323 1.11247,1.17019c-0.00312,0.00174 -0.27868,0.02382 -0.61265,0.04927c-2.57914,0.19608 -5.87644,0.75083 -9.05102,1.52265c-0.21555,0.05242 -0.40194,0.09592 -0.41388,0.09592c-0.01205,0 0.22393,-0.23958 0.52413,-0.53137c1.8643,-1.81215 2.71477,-2.95646 3.71549,-5.0008c0.14907,-0.30451 0.27545,-0.56715 0.28072,-0.58314c0.00022,-0.00098 0.00108,-0.00098 0.00248,-0.0013zm-0.46906,-0.12442c0.0128,0.01295 -0.39399,0.65579 -0.64718,1.0225c-0.36946,0.53507 -0.905,1.23751 -2.12503,2.78866c-0.64083,0.81488 -1.36362,1.7369 -1.60713,2.0488c-0.24351,0.31201 -0.44787,0.56769 -0.45368,0.56769c-0.00592,0 -0.08443,-0.1118 -0.17435,-0.24752c-0.68773,-1.03892 -1.50377,-1.95147 -2.47739,-2.7706c-0.18167,-0.15291 -0.38667,-0.3206 -0.45497,-0.37194c-0.0683,-0.05144 -0.12402,-0.09896 -0.12434,-0.10625c-0.00064,-0.01696 1.03912,-0.46786 1.83279,-0.79444c1.38159,-0.56845 3.26999,-1.24914 4.68308,-1.6872c0.74517,-0.23099 1.5369,-0.46111 1.5482,-0.4497zm-17.88402,-0.01685c0.01786,-0.01773 0.86714,0.18346 1.33039,0.31495c0.69622,0.1976 2.17784,0.69885 2.1787,0.73735c0,0.0075 -0.16328,0.15138 -0.36269,0.32006c-0.80099,0.67764 -1.57368,1.38606 -2.49922,2.2898c-0.27438,0.26797 -0.50746,0.48602 -0.51897,0.48602c-0.01162,0 -0.01667,-0.03916 -0.01032,-0.0869c0.13939,-1.04033 0.10949,-2.37615 -0.08455,-3.736c-0.02463,-0.17237 -0.03947,-0.31908 -0.03334,-0.32528zm11.09129,-2.57746c0.05668,0 1.17249,0.30756 1.74943,0.482c1.43719,0.43469 3.09499,1.04697 4.17057,1.54082l0.44723,0.20478l-0.31526,0.07384c-2.63151,0.6113 -4.8869,1.31668 -7.05925,2.20824c-0.18059,0.07406 -0.33763,0.13474 -0.3486,0.13474c-0.01108,0 0.04657,-0.14116 0.12681,-0.31364c0.65299,-1.40281 1.07472,-2.87479 1.18422,-4.1248c0.01,-0.11375 0.03033,-0.20598 0.04485,-0.20598zm-0.46519,-0.07395c0.01947,0.0198 -0.06303,0.52137 -0.13455,0.81772c-0.22265,0.92234 -0.81261,2.29121 -1.54056,3.57798c-0.12832,0.22675 -0.24297,0.41577 -0.25631,0.4199c-0.01334,0.00402 -0.17909,-0.08407 -0.36785,-0.19576c-0.71182,-0.42098 -1.51786,-0.81924 -2.40306,-1.18824c-0.24685,-0.10299 -0.45702,-0.19456 -0.46777,-0.20478c-0.04045,-0.03828 1.92668,-1.35517 2.96957,-1.9879c0.83411,-0.50614 2.17708,-1.26252 2.20053,-1.23892l0,0zm-6.50565,-1.30101c0.01893,-0.01773 2.53503,0.42272 3.67838,0.64403c0.85218,0.16498 2.08523,0.4261 2.15955,0.45742c0.03582,0.01523 -0.09175,0.08548 -0.50111,0.27221c-1.6194,0.73833 -2.819,1.39737 -4.0116,2.20432c-0.31407,0.2125 -0.57511,0.38607 -0.5806,0.38607c-0.00538,0 -0.01,-0.17737 -0.01022,-0.3939c-0.00086,-1.17584 -0.23297,-2.36267 -0.65879,-3.36537c-0.04582,-0.10799 -0.08013,-0.20043 -0.07561,-0.20478zm-0.42163,-0.06091c0.03495,0.01175 0.10089,0.22001 0.21791,0.68809c0.22394,0.89634 0.32816,1.90285 0.29342,2.83411c-0.00957,0.25916 -0.02581,0.49983 -0.03582,0.53517l-0.01925,0.06482l-0.31654,-0.10364c-0.65256,-0.21087 -1.71878,-0.52833 -2.63249,-0.784c-0.51907,-0.1453 -0.94457,-0.27493 -0.94457,-0.28766c0,-0.03839 0.75742,-0.80401 1.083,-1.09503c0.6219,-0.55595 2.29507,-1.87187 2.35434,-1.85186zm-5.30466,-1.01988c0.03151,-0.00218 0.16736,0.02077 0.32934,0.05698c1.04353,0.23339 2.90687,0.59717 4.10507,0.80086c0.19962,0.03404 0.36397,0.07058 0.36397,0.08168c0,0.01109 -0.07454,0.05883 -0.16531,0.10494c-0.20103,0.10234 -1.0146,0.59467 -1.28672,0.77889c-0.67955,0.45981 -1.29049,0.95203 -1.73535,1.39955c-0.17886,0.17988 -0.32848,0.32659 -0.33321,0.32659c-0.00484,0 -0.03614,-0.10484 -0.06927,-0.23328c-0.22243,-0.86209 -0.68235,-2.13515 -1.09451,-3.03106c-0.06636,-0.14421 -0.12046,-0.27134 -0.12046,-0.28254c0,-0.00142 0.00193,-0.00229 0.00645,-0.00261zm-3.01572,-0.8423c0.00377,-0.00348 0.10606,0.02849 0.23061,0.07123c0.22974,0.07885 0.53284,0.17118 0.88563,0.27091c0.24717,0.06982 0.51886,0.14312 0.80744,0.21772c0.36828,0.09516 0.67288,0.17695 0.67676,0.1814c0.04076,0.04633 0.65933,2.04228 0.87025,2.80812c0.08045,0.29233 0.14155,0.53594 0.13585,0.5417c-0.00581,0.00588 -0.07443,-0.10179 -0.15123,-0.23838c-0.71559,-1.27242 -1.84882,-2.56636 -3.15931,-3.60779c-0.16327,-0.12985 -0.296,-0.24001 -0.296,-0.24491l0,0zm-1.57777,-1.54854c0,0 -0.13455,0.21577 -0.00763,0.53648c0.07851,0.19848 0.31428,0.43687 0.57414,0.68939c0,0 2.72198,2.68468 3.05541,3.0738c1.50818,1.75996 2.16321,3.49262 2.22365,5.88465c0.03883,1.53494 -0.25394,2.88435 -0.96501,4.45268c-1.27456,2.81084 -3.96007,5.91064 -8.10773,9.35757l0.60878,-0.20347c0.39129,-0.29647 0.92274,-0.61305 2.17622,-1.30624c2.88686,-1.59661 6.12866,-3.06521 10.1109,-4.57841c5.7294,-2.17702 15.15397,-4.73142 20.5165,-5.56186l0.55887,-0.08689l-0.08594,-0.13605c-0.49036,-0.77063 -0.82497,-1.24577 -1.22778,-1.74941c-1.17625,-1.47078 -2.60011,-2.67076 -4.34481,-3.65835c-2.39736,-1.35703 -5.50697,-2.41182 -9.43801,-3.20213c-0.74312,-0.14932 -2.37058,-0.43143 -3.69494,-0.64013c-2.80533,-0.44208 -4.61468,-0.7405 -6.61322,-1.09242c-0.71655,-0.12572 -1.78643,-0.30734 -2.49664,-0.46264c-0.3701,-0.08091 -1.07343,-0.24904 -1.62004,-0.43925c-0.45131,-0.17966 -1.08676,-0.35334 -1.22272,-0.87732z"/>
  </g>
  <text xml:space="preserve" text-anchor="start" font-family="Helvetica, Arial, sans-serif" font-size="10" id="svg_6" y="8.453125" x="28.5" stroke-width="0" stroke="#000" fill="url(#svg_7)">new</text>
 </g>
</svg>